<?xml version="1.0" encoding="utf-8"?>
<!-- Generator: Adobe Illustrator 25.4.1, SVG Export Plug-In . SVG Version: 6.00 Build 0)  -->
<svg version="1.1" id="Layer_1" xmlns="http://www.w3.org/2000/svg" xmlns:xlink="http://www.w3.org/1999/xlink" x="0px" y="0px"
	 viewBox="0 0 292.4 335.1" style="enable-background:new 0 0 292.4 335.1;" xml:space="preserve">
<style type="text/css">
	.st0{display:none;}
	.st1{display:inline;fill:#019875;}
	.st2{display:inline;}
	.st3{fill:#FDFDFC;}
	.st4{fill:#019875;}
	.st5{fill:#FF9248;}
	.st6{display:none;fill:#019875;}
	.st7{fill:#EAEAEA;}
	.st8{display:none;fill:#EAEAEA;}
</style>
<g class="st0">
	<path class="st1" d="M110.2,243l3.8,21.8h191.2c5.7,0,10.2,4.6,10.2,10.3c0,2.8-1.2,5.4-3,7.2c-1.9,1.9-4.4,3-7.2,3H104.3
		c-2.7,0-5-1.9-5.4-4.6L63.2,73.1l-51.8-6.7c-4.8-0.6-8.5-4.7-8.5-9.6v0c0-5.9,5.3-10.5,11.1-9.6l51.6,7.6c6.8,1,12.3,6,13.9,12.6
		l2,8l4.3,24.9h250.5l-16,92.2c-2.2,7.8-4.3,15.5-6.5,23.2c-4.5,16-19.1,27.1-35.8,27.1H110.2z"/>
	<g id="barcode_00000096060365872071593010000011306280919256670620_" class="st2">
		<g>
			<polygon class="st3" points="146.7,214.1 132.2,214.1 132.6,131.5 146.7,131.5 			"/>
			<polygon class="st3" points="161.1,214.1 155,214.1 155.4,131.5 161.1,131.5 			"/>
			<polygon class="st3" points="183.8,214.1 176.6,214.1 177,131.5 183.8,131.5 			"/>
			<polygon class="st3" points="196.9,214.1 190.8,214.1 191.2,131.5 196.9,131.5 			"/>
			<polygon class="st3" points="240.1,214.1 233.9,214.1 234.3,131.5 240.1,131.5 			"/>
			<polygon class="st3" points="277,214.1 269.6,214.1 270,131.5 277,131.5 			"/>
			<polygon class="st3" points="219.8,214.1 205.3,214.1 205.8,131.5 219.8,131.5 			"/>
			<polygon class="st3" points="262.6,214.1 248.2,214.1 248.6,131.5 262.6,131.5 			"/>
		</g>
	</g>
	<g id="wheels" class="st2">
		
			<ellipse transform="matrix(0.1135 -0.9935 0.9935 0.1135 -185.851 413.2281)" class="st4" cx="138.6" cy="310.8" rx="22.4" ry="19.9"/>
		
			<ellipse transform="matrix(0.1135 -0.9935 0.9935 0.1135 -71.7595 541.1016)" class="st4" cx="267.4" cy="310.8" rx="22.4" ry="19.9"/>
	</g>
</g>
<path class="st5" d="M292.9,25.2v284.7c0,14-11.3,25.3-25.3,25.3H25.9c-14,0-25.3-11.3-25.3-25.3V25.2c0-14,11.3-25.3,25.3-25.3
	h241.7C281.6-0.1,292.9,11.3,292.9,25.2z"/>
<path class="st6" d="M267.6,335.2H25.9c-14,0-25.3-11.3-25.3-25.3V25.2c0-14,11.3-25.3,25.3-25.3h241.6c14,0,25.3,11.3,25.3,25.3
	v284.7C292.9,323.9,281.6,335.2,267.6,335.2z"/>
<path class="st6" d="M254.4,316.9H39.2c-12.4,0-22.5-10.1-22.5-22.5V40.8c0-12.4,10.1-22.5,22.5-22.5h215.2
	c12.4,0,22.5,10.1,22.5,22.5v253.5C276.9,306.8,266.8,316.9,254.4,316.9z"/>
<g>
	<path class="st7" d="M150.2,64.9c2.5,0.6,5,1,7.3,1.7c16.3,5.1,27,19.8,27.1,36.9c0,6.9,0,13.9,0,21c11.6,0,23.1,0,35,0
		c-0.7-1.2-1.4-2.3-2-3.4c-1.3-2.2-2.6-4.3-3.9-6.5c-1.1-1.9-2.6-2.7-4.8-2.7c-3.7,0-7.3,0-11,0c-2.9,0-4.8-1.8-4.8-4.3
		c0-2.5,2-4.2,4.9-4.2c3.9,0,7.7,0,11.6,0c4.7,0.1,8.4,2.1,10.9,6c3.6,5.7,7,11.5,10.5,17.3c0.4,0.7,0.7,1.6,0.8,2.5
		c2.6,21.1,5.2,42.1,7.8,63.2c1.8,14.4,3.6,28.9,5.5,43.3c2.5,18.5-11.3,34.4-30,34.4c-45.9,0-91.9,0-137.8,0
		c-18.8,0-32.6-16.2-29.9-34.8c2-14.5,3.7-29,5.5-43.5c1.9-15.6,3.9-31.1,5.8-46.7c0.6-5.1,1.2-10.2,1.9-15.3c0.2-1.2,0.5-2.4,1-3.4
		c3.1-5.2,6.3-10.4,9.3-15.6c2.9-5,7.1-7.6,13-7.4c3.5,0.1,6.9,0,10.4,0c2.9,0,4.8,1.7,4.9,4.2c0,2.5-1.9,4.3-4.8,4.3
		c-3.7,0-7.3,0-11,0c-2.1,0-3.7,0.8-4.8,2.7c-1.9,3.3-3.9,6.5-5.9,10c11.8,0,23.3,0,35,0c0-0.7,0-1.5,0-2.2c0.1-8-0.3-16.1,0.5-24
		c1.5-16.7,15.8-30.9,32.5-33c0.5-0.1,1-0.3,1.5-0.4C144.8,64.9,147.5,64.9,150.2,64.9z M68.8,133.5c-0.1,0.5-0.3,0.8-0.3,1.2
		c-1.8,14-3.5,28.1-5.3,42.1c-2.4,19.1-4.8,38.1-7.1,57.2c-0.4,3.7-0.7,7.7,0.1,11.3c2.2,9.9,10.8,16.2,21.3,16.2
		c22.8,0,45.5,0,68.3,0c22.9,0,45.8,0,68.7,0c13.6,0,23.5-10.8,22-23.9c-1.6-14.1-3.5-28.2-5.3-42.3c-2-15.7-3.9-31.4-5.9-47.1
		c-0.6-4.9-1.2-9.8-1.9-14.7C171.9,133.5,120.4,133.5,68.8,133.5z M175.9,124.6c0.1-0.3,0.2-0.4,0.2-0.6c-0.1-7.8,0.3-15.6-0.3-23.4
		c-1.1-14.9-13.3-26.2-28.6-27c-14.3-0.8-28.1,9.6-30.2,24.1c-1.3,8.7-0.6,17.7-0.8,26.6c0,0.1,0.1,0.2,0.2,0.4
		C136.3,124.6,156.1,124.6,175.9,124.6z"/>
	<path class="st8" d="M68.8,133.5c51.6,0,103.1,0,154.8,0c0.6,5,1.3,9.9,1.9,14.7c2,15.7,3.9,31.4,5.9,47.1
		c1.8,14.1,3.6,28.2,5.3,42.3c1.5,13.2-8.4,23.9-22,23.9c-22.9,0.1-45.8,0-68.7,0c-22.8,0-45.5,0-68.3,0c-10.5,0-19.2-6.4-21.3-16.2
		c-0.8-3.6-0.6-7.6-0.1-11.3c2.2-19.1,4.7-38.1,7.1-57.2c1.8-14,3.5-28.1,5.3-42.1C68.6,134.4,68.7,134,68.8,133.5z M94.9,195.4
		c0-9.1,0-18.1,0-27.2c0-2.1-0.7-3.7-2.6-4.5c-3-1.3-5.9,0.8-5.9,4.5c0,17.5,0,35,0,52.4c0,1,0,2,0.1,3c0.2,2.2,2,3.8,4.2,3.8
		c2.2,0,4-1.5,4.2-3.7c0.1-0.7,0-1.5,0-2.2C94.9,212.7,94.9,204.1,94.9,195.4z M206,195.3C206,195.3,206,195.3,206,195.3
		c0-9,0-18,0-27c0-2.1-0.6-3.8-2.6-4.7c-3.1-1.3-5.9,1-5.9,4.8c0,17.9,0,35.9,0,53.8c0,0.7,0,1.5,0.2,2.2c0.6,2,2.4,3.1,4.4,2.9
		c2-0.2,3.5-1.7,3.8-3.7c0.1-0.5,0.1-1.1,0.1-1.6C206,213.1,206,204.2,206,195.3z M103.4,184.4c0,5.3,0,10.7,0,16
		c0,0.8,0,1.6,0.2,2.4c0.4,1.8,2,3.1,3.8,3.2c1.9,0.1,3.7-1.1,4.3-3c0.2-0.8,0.3-1.7,0.3-2.6c0-10.6,0-21.2,0-31.8
		c0-0.7,0-1.3-0.1-2c-0.4-2-2.1-3.4-4.1-3.4c-2,0-3.8,1.4-4.2,3.6c-0.1,0.7-0.1,1.5-0.1,2.2C103.4,174.1,103.4,179.2,103.4,184.4z
		 M189,184.6c0-5.5,0-11.1,0-16.6c0-2.8-1.8-4.6-4.2-4.7c-2.5-0.1-4.3,1.9-4.4,4.7c0,0.5,0,0.9,0,1.4c0,10.2,0,20.3,0,30.5
		c0,0.6,0,1.2,0,1.8c0.2,2.7,1.9,4.4,4.3,4.4c2.4,0,4.3-1.8,4.3-4.6C189,195.8,189,190.2,189,184.6z M129.1,184.7c0-5.5,0-11,0-16.4
		c0-3-1.7-5-4.3-5c-2.6,0-4.3,2-4.3,5c0,10.9,0,21.8,0,32.7c0,3.1,1.6,5,4.2,5.1c2.6,0.1,4.3-1.9,4.3-5.1
		C129.1,195.5,129.1,190.1,129.1,184.7z M154.7,184.6c0-5.4,0-10.8,0-16.2c0-1-0.2-2-0.6-2.9c-0.8-1.7-2.8-2.5-4.5-2.1
		c-2.1,0.5-3.4,2.1-3.4,4.6c0,11,0,22,0,33.1c0,3,1.7,5,4.3,5c2.6,0,4.3-1.9,4.3-5C154.7,195.5,154.7,190.1,154.7,184.6z
		 M163.3,184.6c0,5.5,0,11,0,16.4c0,3.1,1.7,5,4.2,5c2.6,0,4.3-1.9,4.3-5c0-11,0-21.9,0-32.9c0-3-1.8-5-4.3-4.9
		c-2.5,0-4.1,2-4.2,4.9C163.3,173.6,163.3,179.1,163.3,184.6z M189,221c0,0-0.1,0-0.1,0c0-0.9,0.1-1.9,0-2.8
		c-0.3-2.2-2.2-3.7-4.3-3.7c-2,0.1-3.8,1.6-4,3.7c-0.2,1.8-0.2,3.7,0,5.6c0.2,2.1,1.9,3.4,4,3.5c2.1,0.1,3.9-1.2,4.3-3.4
		C189,223,189,222,189,221z M112.1,221.1c0,0-0.1,0-0.1,0c0-0.9,0.1-1.9,0-2.8c-0.3-2.2-2.1-3.8-4.2-3.8c-2.1,0-4,1.5-4.2,3.8
		c-0.2,1.8-0.2,3.7,0.1,5.6c0.3,2.1,2,3.4,4,3.4c2.1,0,3.7-1.2,4.2-3.2C112.1,223.1,112,222.1,112.1,221.1z M163.4,221
		C163.4,221,163.4,221,163.4,221c0,0.8,0,1.6,0,2.4c0.2,2.3,1.9,3.9,4.2,4c2.3,0,4.1-1.6,4.2-3.9c0.1-1.7,0.1-3.3,0-5
		c-0.2-2.2-2.1-3.9-4.3-3.9c-2.2,0-4,1.8-4.1,4C163.3,219.4,163.4,220.2,163.4,221z M129,221c0-0.8,0.1-1.6,0-2.4
		c-0.2-2.3-1.9-4-4.1-4c-2.1,0-4.1,1.5-4.3,3.7c-0.2,1.8-0.2,3.6,0,5.4c0.2,2.3,2.2,3.8,4.4,3.7c2.2-0.1,3.8-1.7,4-4
		C129.1,222.6,129,221.8,129,221z M154.7,221.1C154.7,221.1,154.7,221.1,154.7,221.1c0-0.9,0.1-1.7,0-2.6c-0.2-2.3-2-4-4.2-4
		c-2.1,0-4,1.6-4.2,3.8c-0.2,1.8-0.2,3.6,0,5.4c0.2,2.2,2.1,3.7,4.3,3.6c2.2,0,3.9-1.6,4.1-3.8C154.7,222.7,154.7,221.9,154.7,221.1
		z"/>
	<path class="st8" d="M175.9,124.6c-19.8,0-39.6,0-59.4,0c-0.1-0.2-0.2-0.3-0.2-0.4c0.2-8.9-0.5-17.9,0.8-26.6
		c2.1-14.5,15.9-24.9,30.2-24.1c15.3,0.8,27.5,12.1,28.6,27c0.6,7.8,0.2,15.6,0.3,23.4C176.1,124.1,176,124.3,175.9,124.6z"/>
	<path class="st7" d="M94.9,195.4c0,8.7,0,17.3,0,26c0,0.7,0,1.5,0,2.2c-0.3,2.2-2,3.7-4.2,3.7c-2.2,0-4-1.6-4.2-3.8
		c-0.1-1,0-2-0.1-3c0-17.5,0-35,0-52.4c0-3.6,2.9-5.8,5.9-4.5c1.9,0.9,2.6,2.5,2.6,4.5C94.9,177.2,94.9,186.3,94.9,195.4z"/>
	<path class="st7" d="M206,195.3c0,8.9,0,17.7,0,26.6c0,0.5,0,1.1-0.1,1.6c-0.2,2.1-1.8,3.6-3.8,3.7c-2.1,0.2-3.9-1-4.4-2.9
		c-0.2-0.7-0.2-1.4-0.2-2.2c0-17.9,0-35.9,0-53.8c0-3.8,2.8-6.1,5.9-4.8c2.1,0.9,2.6,2.6,2.6,4.7C206,177.3,206,186.3,206,195.3
		C206,195.3,206,195.3,206,195.3z"/>
	<path class="st7" d="M103.4,184.4c0-5.1,0-10.3,0-15.4c0-0.7,0-1.5,0.1-2.2c0.4-2.1,2.2-3.6,4.2-3.6c2,0,3.7,1.4,4.1,3.4
		c0.1,0.6,0.1,1.3,0.1,2c0,10.6,0,21.2,0,31.8c0,0.9-0.1,1.7-0.3,2.6c-0.5,1.9-2.3,3.1-4.3,3c-1.9-0.1-3.4-1.4-3.8-3.2
		c-0.2-0.8-0.2-1.6-0.2-2.4C103.4,195,103.4,189.7,103.4,184.4z"/>
	<path class="st7" d="M189,184.6c0,5.6,0,11.2,0,16.8c0,2.7-1.9,4.6-4.3,4.6c-2.4,0-4.1-1.7-4.3-4.4c0-0.6,0-1.2,0-1.8
		c0-10.2,0-20.3,0-30.5c0-0.5,0-0.9,0-1.4c0.1-2.8,2-4.8,4.4-4.7c2.4,0.1,4.1,2,4.2,4.7C189,173.5,189,179,189,184.6z"/>
	<path class="st7" d="M129.1,184.7c0,5.4,0,10.8,0,16.2c0,3.2-1.7,5.2-4.3,5.1c-2.6-0.1-4.2-2-4.2-5.1c0-10.9,0-21.8,0-32.7
		c0-3,1.7-5,4.3-5c2.5,0,4.2,1.9,4.3,5C129.1,173.7,129.1,179.2,129.1,184.7z"/>
	<path class="st7" d="M154.7,184.6c0,5.5,0,11,0,16.4c0,3.1-1.7,5-4.3,5c-2.6,0-4.3-2-4.3-5c0-11,0-22,0-33.1c0-2.5,1.3-4.1,3.4-4.6
		c1.8-0.4,3.8,0.4,4.5,2.1c0.4,0.9,0.5,1.9,0.6,2.9C154.8,173.8,154.7,179.2,154.7,184.6z"/>
	<path class="st7" d="M163.3,184.6c0-5.5,0-11,0-16.4c0-2.9,1.7-4.8,4.2-4.9c2.6,0,4.3,1.9,4.3,4.9c0,11,0,21.9,0,32.9
		c0,3-1.7,5-4.3,5c-2.6,0-4.2-1.9-4.2-5C163.3,195.5,163.3,190,163.3,184.6z"/>
	<path class="st7" d="M189,221c-0.1,1,0,2-0.2,3c-0.4,2.1-2.2,3.4-4.3,3.4c-2-0.1-3.7-1.4-4-3.5c-0.2-1.8-0.2-3.7,0-5.6
		c0.2-2.1,2-3.6,4-3.7c2.1-0.1,4,1.5,4.3,3.7c0.1,0.9,0,1.9,0,2.8C188.9,221,189,221,189,221z"/>
	<path class="st7" d="M112.1,221.1c-0.1,1-0.1,2-0.3,3c-0.5,2-2.1,3.3-4.2,3.2c-2.1,0-3.8-1.3-4-3.4c-0.2-1.8-0.2-3.7-0.1-5.6
		c0.2-2.3,2.1-3.8,4.2-3.8c2.1,0,3.9,1.6,4.2,3.8c0.1,0.9,0,1.9,0,2.8C112,221.1,112.1,221.1,112.1,221.1z"/>
	<path class="st7" d="M163.4,221c0-0.8,0-1.6,0-2.4c0.2-2.3,1.9-4,4.1-4c2.2,0,4.1,1.7,4.3,3.9c0.1,1.7,0.1,3.3,0,5
		c-0.1,2.3-2,3.9-4.2,3.9c-2.3,0-4-1.6-4.2-4C163.3,222.6,163.4,221.8,163.4,221C163.4,221,163.4,221,163.4,221z"/>
	<path class="st7" d="M129,221c0,0.8,0.1,1.6,0,2.4c-0.2,2.3-1.8,3.9-4,4c-2.3,0.1-4.2-1.4-4.4-3.7c-0.2-1.8-0.2-3.6,0-5.4
		c0.2-2.2,2.2-3.7,4.3-3.7c2.2,0,4,1.7,4.1,4C129.1,219.4,129,220.2,129,221z"/>
	<path class="st7" d="M154.7,221.1c0,0.8,0.1,1.6,0,2.4c-0.2,2.2-1.9,3.8-4.1,3.8c-2.2,0-4.1-1.4-4.3-3.6c-0.2-1.8-0.2-3.6,0-5.4
		c0.2-2.2,2.1-3.8,4.2-3.8c2.2,0,4,1.7,4.2,4C154.8,219.4,154.7,220.2,154.7,221.1C154.7,221.1,154.7,221.1,154.7,221.1z"/>
</g>
</svg>
